<!-- Generator: Adobe Illustrator 18.1.0, SVG Export Plug-In  -->
<svg version="1.1"
	 xmlns="http://www.w3.org/2000/svg" xmlns:xlink="http://www.w3.org/1999/xlink" xmlns:a="http://ns.adobe.com/AdobeSVGViewerExtensions/3.0/"
	 x="0px" y="0px" width="88.3px" height="111.3px" viewBox="0 0 88.3 111.3" enable-background="new 0 0 88.3 111.3"
	 xml:space="preserve">
<defs>
</defs>
<g>
	<polygon points="0,44.4 15.7,44.4 15.7,49.8 20.4,49.8 20.4,5.1 26.2,5.1 26.2,0 36.3,0 36.3,5.1 42.3,5.1 42.3,25.1 52.2,25.1 
		52.2,30.2 67.2,30.2 67.2,35.6 77.7,35.6 77.7,40.5 82.5,40.5 82.5,45.7 88.3,45.7 88.3,80.6 82.4,80.6 82.4,96.3 77.5,96.3 
		77.5,111.3 25.6,111.3 25.6,96.3 20.4,96.3 20.4,86 15.5,86 15.5,75.9 10.5,75.9 10.5,65.7 5.4,65.7 5.4,60.3 0,60.3 	"/>
	<polygon fill="#FFFFFF" points="15,54.9 20.2,54.9 20.2,72.1 26,72.1 26,5.1 36.3,5.1 36.3,51.1 41.9,51.1 41.9,30.5 52.2,30.5 
		52.2,50.4 57.4,50.4 57.4,35.8 67.2,35.8 67.2,55.3 72.1,55.3 72.1,40.6 77.7,40.6 77.7,45.5 82.5,45.5 82.5,80.6 77.3,80.6 
		77.3,96.3 72.4,96.3 72.4,106 30.7,106 30.7,96.3 25.6,96.3 25.6,85.8 20.4,85.8 20.4,75.5 15.5,75.5 15.5,65.2 10.5,65.2 10.5,60 
		6,60 6,49.8 15.2,49.8 	"/>
</g>
</svg>
